<svg width="40" height="40" viewBox="0 0 40 40" fill="none" xmlns="http://www.w3.org/2000/svg">
<path d="M19.9496 0L13.8496 4.79H26.0996L19.9496 0Z" fill="#00a5a7"/>
<path d="M33.7498 5.2901L26.2998 4.8501L34.9898 13.5401L33.7498 5.2901Z" fill="#00a5a7"/>
<path d="M6.23047 5.3001L4.98047 13.5601L13.6905 4.8501L6.23047 5.3001Z" fill="#00a5a7"/>
<path d="M34.4398 33.72L34.9998 26.2L26.2998 34.9L34.4398 33.72Z" fill="#00a5a7"/>
<path d="M20.6298 39.8499L26.1698 34.95H13.8398L20.6298 39.8499Z" fill="#00a5a7"/>
<path d="M4.92 26.0399V13.6899L0 19.1599L4.92 26.0399Z" fill="#00a5a7"/>
<path d="M35.0801 13.71V26.01L39.9801 19.15L35.0801 13.71Z" fill="#00a5a7"/>
<path d="M5.54047 33.7299L13.7105 34.9099L4.98047 26.1699L5.54047 33.7299Z" fill="#00a5a7"/>
</svg>
